<svg xmlns="http://www.w3.org/2000/svg" viewBox="0 0 64 64" role="img" aria-label="Detective game favicon">
  <defs>
    <radialGradient id="bg" cx="50%" cy="38%" r="70%">
      <stop offset="0" stop-color="#303030"/>
      <stop offset="0.56" stop-color="#151515"/>
      <stop offset="1" stop-color="#050505"/>
    </radialGradient>
    <linearGradient id="gold" x1="0" y1="0" x2="1" y2="1">
      <stop offset="0" stop-color="#ffe3a0"/>
      <stop offset="0.45" stop-color="#d59a42"/>
      <stop offset="1" stop-color="#8a4d1f"/>
    </linearGradient>
    <filter id="shadow" x="-20%" y="-20%" width="140%" height="140%">
      <feDropShadow dx="0" dy="2" stdDeviation="1.3" flood-color="#000" flood-opacity="0.65"/>
    </filter>
  </defs>

  <rect width="64" height="64" rx="11" fill="url(#bg)"/>
  <rect x="3" y="3" width="58" height="58" rx="8" fill="none" stroke="#8f6a3c" stroke-width="2"/>
  <path d="M8 50c12-4 36-4 48 0" stroke="#d59a42" stroke-width="1.5" opacity="0.55"/>

  <g filter="url(#shadow)">
    <path d="M17 29c3-10 9-15 15-15s12 5 15 15c-6 2-24 2-30 0z" fill="#c98637"/>
    <path d="M13 29c9 4 29 4 38 0 3 2 2 6-1 7-8 3-28 3-36 0-3-1-4-5-1-7z" fill="#3d2619"/>
    <path d="M22 26c5 2 15 2 20 0l1 5c-6 2-16 2-22 0z" fill="#171717"/>
    <circle cx="26" cy="39" r="8" fill="none" stroke="#f2c16e" stroke-width="4"/>
    <path d="M32 45l10 8" stroke="#f2c16e" stroke-width="5" stroke-linecap="round"/>
    <path d="M21 39h10" stroke="#fff2c2" stroke-width="1.5" opacity="0.85"/>
  </g>

  <text x="32" y="11" text-anchor="middle" font-family="Georgia, 'Times New Roman', serif" font-size="7" font-weight="700" letter-spacing="0.9" fill="url(#gold)">DETECTIVE</text>
  <text x="32" y="58" text-anchor="middle" font-family="Georgia, 'Times New Roman', serif" font-size="7" font-weight="700" letter-spacing="0.8" fill="#f1cf8b">FILES</text>
</svg>
